<mxfile host="app.diagrams.net" agent="Mozilla/5.0 (Windows NT 10.0; Win64; x64) AppleWebKit/537.36 (KHTML, like Gecko) Chrome/130.0.0.0 Safari/537.36" version="24.8.3">
  <diagram name="Page-1" id="75aQ0NsXPLH8SBgKZswc">
    <mxGraphModel dx="2100" dy="2144" grid="1" gridSize="10" guides="1" tooltips="1" connect="1" arrows="1" fold="1" page="1" pageScale="1" pageWidth="850" pageHeight="1100" math="0" shadow="0">
      <root>
        <mxCell id="0" />
        <mxCell id="1" parent="0" />
        <mxCell id="2" value="Evaluation" style="whiteSpace=wrap;strokeWidth=2;" parent="1" vertex="1">
          <mxGeometry x="71" y="625" width="885" height="295" as="geometry" />
        </mxCell>
        <mxCell id="3" value="Model Implementation" style="whiteSpace=wrap;strokeWidth=2;" parent="1" vertex="1">
          <mxGeometry x="709" y="131" width="315" height="444" as="geometry" />
        </mxCell>
        <mxCell id="4" value="Feature Engineering" style="whiteSpace=wrap;strokeWidth=2;" parent="1" vertex="1">
          <mxGeometry x="8" y="255" width="307" height="320" as="geometry" />
        </mxCell>
        <mxCell id="5" value="Data Collection" style="whiteSpace=wrap;strokeWidth=2;" parent="1" vertex="1">
          <mxGeometry x="335" y="8" width="335" height="345" as="geometry" />
        </mxCell>
        <mxCell id="6" value="Collect News Articles" style="whiteSpace=wrap;strokeWidth=2;" parent="1" vertex="1">
          <mxGeometry x="370" y="33" width="211" height="48" as="geometry" />
        </mxCell>
        <mxCell id="7" value="Preprocess Text" style="whiteSpace=wrap;strokeWidth=2;" parent="1" vertex="1">
          <mxGeometry x="450" y="156" width="171" height="48" as="geometry" />
        </mxCell>
        <mxCell id="8" value="Extract Keywords" style="whiteSpace=wrap;strokeWidth=2;" parent="1" vertex="1">
          <mxGeometry x="444" y="280" width="184" height="48" as="geometry" />
        </mxCell>
        <mxCell id="9" value="Calculate Text Similarity" style="whiteSpace=wrap;strokeWidth=2;" parent="1" vertex="1">
          <mxGeometry x="43" y="280" width="236" height="48" as="geometry" />
        </mxCell>
        <mxCell id="10" value="Rank Sentences" style="whiteSpace=wrap;strokeWidth=2;" parent="1" vertex="1">
          <mxGeometry x="85" y="403" width="171" height="48" as="geometry" />
        </mxCell>
        <mxCell id="11" value="Generate Summary" style="whiteSpace=wrap;strokeWidth=2;" parent="1" vertex="1">
          <mxGeometry x="72" y="502" width="198" height="48" as="geometry" />
        </mxCell>
        <mxCell id="12" value="Select Model Architecture" style="whiteSpace=wrap;strokeWidth=2;" parent="1" vertex="1">
          <mxGeometry x="744" y="156" width="245" height="48" as="geometry" />
        </mxCell>
        <mxCell id="13" value="Train Model" style="whiteSpace=wrap;strokeWidth=2;" parent="1" vertex="1">
          <mxGeometry x="794" y="280" width="143" height="48" as="geometry" />
        </mxCell>
        <mxCell id="14" value="Test Model" style="whiteSpace=wrap;strokeWidth=2;" parent="1" vertex="1">
          <mxGeometry x="798" y="403" width="137" height="48" as="geometry" />
        </mxCell>
        <mxCell id="15" value="Optimize Model" style="whiteSpace=wrap;strokeWidth=2;" parent="1" vertex="1">
          <mxGeometry x="780" y="502" width="172" height="48" as="geometry" />
        </mxCell>
        <mxCell id="16" value="Evaluate Summary Quality" style="whiteSpace=wrap;strokeWidth=2;" parent="1" vertex="1">
          <mxGeometry x="372" y="650" width="249" height="48" as="geometry" />
        </mxCell>
        <mxCell id="17" value="Analyze Metrics" style="whiteSpace=wrap;strokeWidth=2;" parent="1" vertex="1">
          <mxGeometry x="410" y="748" width="173" height="48" as="geometry" />
        </mxCell>
        <mxCell id="18" value="Perform Comparison" style="whiteSpace=wrap;strokeWidth=2;" parent="1" vertex="1">
          <mxGeometry x="394" y="847" width="205" height="48" as="geometry" />
        </mxCell>
        <mxCell id="19" value="Data" style="whiteSpace=wrap;strokeWidth=2;" parent="1" vertex="1">
          <mxGeometry x="705" y="33" width="93" height="48" as="geometry" />
        </mxCell>
        <mxCell id="20" value="Feature" style="whiteSpace=wrap;strokeWidth=2;" parent="1" vertex="1">
          <mxGeometry x="848" y="33" width="116" height="48" as="geometry" />
        </mxCell>
        <mxCell id="21" value="Model" style="whiteSpace=wrap;strokeWidth=2;" parent="1" vertex="1">
          <mxGeometry x="1013" y="33" width="103" height="48" as="geometry" />
        </mxCell>
        <mxCell id="22" value="" style="curved=1;startArrow=none;endArrow=block;exitX=0.64;exitY=1.01;entryX=0.5;entryY=0.01;" parent="1" source="6" target="7" edge="1">
          <mxGeometry relative="1" as="geometry">
            <Array as="points">
              <mxPoint x="536" y="106" />
            </Array>
          </mxGeometry>
        </mxCell>
        <mxCell id="23" value="" style="curved=1;startArrow=none;endArrow=block;exitX=0.5;exitY=1.02;entryX=0.5;entryY=0;" parent="1" source="7" target="8" edge="1">
          <mxGeometry relative="1" as="geometry">
            <Array as="points" />
          </mxGeometry>
        </mxCell>
        <mxCell id="24" value="" style="curved=1;startArrow=none;endArrow=block;exitX=0.5;exitY=1;entryX=0.48;entryY=0;" parent="1" source="9" target="10" edge="1">
          <mxGeometry relative="1" as="geometry">
            <Array as="points">
              <mxPoint x="161" y="378" />
            </Array>
          </mxGeometry>
        </mxCell>
        <mxCell id="25" value="" style="curved=1;startArrow=none;endArrow=block;exitX=0.5;exitY=1.01;entryX=0.5;entryY=-0.01;" parent="1" source="10" target="11" edge="1">
          <mxGeometry relative="1" as="geometry">
            <Array as="points" />
          </mxGeometry>
        </mxCell>
        <mxCell id="26" value="" style="curved=1;startArrow=none;endArrow=block;exitX=0.5;exitY=1.02;entryX=0.5;entryY=0;" parent="1" source="12" target="13" edge="1">
          <mxGeometry relative="1" as="geometry">
            <Array as="points" />
          </mxGeometry>
        </mxCell>
        <mxCell id="27" value="" style="curved=1;startArrow=none;endArrow=block;exitX=0.5;exitY=1;entryX=0.5;entryY=0;" parent="1" source="13" target="14" edge="1">
          <mxGeometry relative="1" as="geometry">
            <Array as="points" />
          </mxGeometry>
        </mxCell>
        <mxCell id="28" value="" style="curved=1;startArrow=none;endArrow=block;exitX=0.5;exitY=1.01;entryX=0.5;entryY=-0.01;" parent="1" source="14" target="15" edge="1">
          <mxGeometry relative="1" as="geometry">
            <Array as="points" />
          </mxGeometry>
        </mxCell>
        <mxCell id="29" value="" style="curved=1;startArrow=none;endArrow=block;exitX=0.5;exitY=1.01;entryX=0.5;entryY=0.01;" parent="1" source="16" target="17" edge="1">
          <mxGeometry relative="1" as="geometry">
            <Array as="points" />
          </mxGeometry>
        </mxCell>
        <mxCell id="30" value="" style="curved=1;startArrow=none;endArrow=block;exitX=0.5;exitY=1.02;entryX=0.5;entryY=0;" parent="1" source="17" target="18" edge="1">
          <mxGeometry relative="1" as="geometry">
            <Array as="points" />
          </mxGeometry>
        </mxCell>
        <mxCell id="31" value="" style="curved=1;startArrow=none;endArrow=block;exitX=0.36;exitY=1.01;entryX=1;entryY=0.02;" parent="1" source="6" target="9" edge="1">
          <mxGeometry relative="1" as="geometry">
            <Array as="points">
              <mxPoint x="415" y="106" />
              <mxPoint x="415" y="255" />
            </Array>
          </mxGeometry>
        </mxCell>
        <mxCell id="32" value="" style="curved=1;startArrow=none;endArrow=block;exitX=0.5;exitY=1;entryX=0.7;entryY=0;" parent="1" source="8" target="10" edge="1">
          <mxGeometry relative="1" as="geometry">
            <Array as="points">
              <mxPoint x="536" y="353" />
              <mxPoint x="238" y="378" />
            </Array>
          </mxGeometry>
        </mxCell>
        <mxCell id="33" value="" style="curved=1;startArrow=none;endArrow=block;exitX=0.5;exitY=1;entryX=0;entryY=0.11;" parent="1" source="11" target="16" edge="1">
          <mxGeometry relative="1" as="geometry">
            <Array as="points">
              <mxPoint x="171" y="625" />
            </Array>
          </mxGeometry>
        </mxCell>
        <mxCell id="34" value="" style="curved=1;startArrow=none;endArrow=block;exitX=0.5;exitY=1;entryX=1;entryY=0.16;" parent="1" source="15" target="16" edge="1">
          <mxGeometry relative="1" as="geometry">
            <Array as="points">
              <mxPoint x="866" y="625" />
            </Array>
          </mxGeometry>
        </mxCell>
        <mxCell id="TO4MmY55cJaJxzrqGvMt-35" value="" style="ellipse;whiteSpace=wrap;html=1;" vertex="1" parent="1">
          <mxGeometry x="377" y="1000" width="328" height="80" as="geometry" />
        </mxCell>
        <mxCell id="TO4MmY55cJaJxzrqGvMt-36" value="&lt;font style=&quot;font-size: 15px;&quot;&gt;STOP&lt;/font&gt;" style="text;html=1;align=center;verticalAlign=middle;whiteSpace=wrap;rounded=0;" vertex="1" parent="1">
          <mxGeometry x="511" y="1025" width="60" height="30" as="geometry" />
        </mxCell>
        <mxCell id="TO4MmY55cJaJxzrqGvMt-37" value="" style="ellipse;whiteSpace=wrap;html=1;" vertex="1" parent="1">
          <mxGeometry x="510.75" y="-410" width="294.5" height="100" as="geometry" />
        </mxCell>
        <mxCell id="TO4MmY55cJaJxzrqGvMt-38" value="&lt;font style=&quot;font-size: 16px;&quot;&gt;START&lt;/font&gt;" style="text;html=1;align=center;verticalAlign=middle;whiteSpace=wrap;rounded=0;" vertex="1" parent="1">
          <mxGeometry x="628" y="-370" width="60" height="30" as="geometry" />
        </mxCell>
        <mxCell id="TO4MmY55cJaJxzrqGvMt-39" value="" style="shape=cylinder3;whiteSpace=wrap;html=1;boundedLbl=1;backgroundOutline=1;size=15;" vertex="1" parent="1">
          <mxGeometry x="514" y="-240" width="280" height="80" as="geometry" />
        </mxCell>
        <mxCell id="TO4MmY55cJaJxzrqGvMt-41" value="&lt;font style=&quot;font-size: 15px;&quot;&gt;DATA COLLECTION&lt;/font&gt;" style="text;html=1;align=center;verticalAlign=middle;whiteSpace=wrap;rounded=0;" vertex="1" parent="1">
          <mxGeometry x="628" y="-200" width="60" height="30" as="geometry" />
        </mxCell>
        <mxCell id="TO4MmY55cJaJxzrqGvMt-44" value="" style="html=1;shadow=0;dashed=0;align=center;verticalAlign=middle;shape=mxgraph.arrows2.arrow;dy=0.6;dx=40;direction=south;notch=0;" vertex="1" parent="1">
          <mxGeometry x="637" y="-310" width="42" height="70" as="geometry" />
        </mxCell>
        <mxCell id="TO4MmY55cJaJxzrqGvMt-48" value="" style="html=1;shadow=0;dashed=0;align=center;verticalAlign=middle;shape=mxgraph.arrows2.arrow;dy=0.6;dx=40;direction=south;notch=0;" vertex="1" parent="1">
          <mxGeometry x="637" y="-160" width="42" height="70" as="geometry" />
        </mxCell>
        <mxCell id="TO4MmY55cJaJxzrqGvMt-46" value="" style="shape=process;whiteSpace=wrap;html=1;backgroundOutline=1;" vertex="1" parent="1">
          <mxGeometry x="533" y="-90" width="250" height="60" as="geometry" />
        </mxCell>
        <mxCell id="TO4MmY55cJaJxzrqGvMt-51" value="&lt;font style=&quot;font-size: 15px;&quot;&gt;DATA PREPROCESSING&lt;/font&gt;" style="text;html=1;align=center;verticalAlign=middle;whiteSpace=wrap;rounded=0;" vertex="1" parent="1">
          <mxGeometry x="628" y="-75" width="60" height="30" as="geometry" />
        </mxCell>
        <mxCell id="TO4MmY55cJaJxzrqGvMt-52" value="" style="html=1;shadow=0;dashed=0;align=center;verticalAlign=middle;shape=mxgraph.arrows2.arrow;dy=0.6;dx=40;direction=south;notch=0;" vertex="1" parent="1">
          <mxGeometry x="519" y="925" width="44" height="75" as="geometry" />
        </mxCell>
      </root>
    </mxGraphModel>
  </diagram>
</mxfile>
